<?xml version="1.0" encoding="utf-8"?>
<!-- Generator: Adobe Illustrator 23.0.1, SVG Export Plug-In . SVG Version: 6.00 Build 0)  -->
<svg version="1.1" id="Layer_1" xmlns="http://www.w3.org/2000/svg" xmlns:xlink="http://www.w3.org/1999/xlink" x="0px" y="0px"
	 viewBox="0 0 2645.3 493" style="enable-background:new 0 0 2645.3 493;" xml:space="preserve">
<style type="text/css">
	.st0{fill:#14286E;}
	.st1{fill:#0087E6;}
	.st2{fill:#00AF9B;}
	.st3{fill:#FFFFFF;}
	.st4{fill:#EC6331;}
	.st5{fill:none;stroke:#EC6331;stroke-miterlimit:10;}
	.st6{fill:none;stroke:#EC6331;stroke-width:1.0446;stroke-miterlimit:10;}
	.st7{fill:none;stroke:#EC6331;stroke-width:0.8129;stroke-miterlimit:10;}
	.st8{fill:none;stroke:#EC6331;stroke-width:0.8036;stroke-miterlimit:10;}
	.st9{fill:none;stroke:#EC6331;stroke-width:0.9028;stroke-miterlimit:10;}
	.st10{fill:none;stroke:#EC6331;stroke-width:0.9051;stroke-miterlimit:10;}
	.st11{fill:none;stroke:#EC6331;stroke-width:0.7314;stroke-miterlimit:10;}
	.st12{fill:none;stroke:#EC6331;stroke-width:0.6625;stroke-miterlimit:10;}
</style>
<g>
	<path class="st0" d="M328.5,280.5c0-13.3-5.4-25.3-14.1-34c8.7-8.7,14.1-20.7,14.1-34c0-26.5-21.5-48-48-48h-116v116
		c0,26.5,21.5,48,48,48c13.3,0,25.3,5.4,34,14.1c8.7-8.7,20.7-14.1,34-14.1C307,328.5,328.5,307,328.5,280.5z"/>
	<g>
		<path class="st0" d="M410.5,164.5h58.7c29.6,0,50.6,15.2,50.6,42.3c0,15.2-7.4,28.4-19.9,35.1v0.5c18,5.3,26.6,21.9,26.6,38.6
			c0,32.8-26.3,47.6-56.6,47.6h-59.4V164.5z M469.2,231.5c12.9,0,20.3-9.2,20.3-21s-6.9-20.3-20.8-20.3h-28.4v41.3H469.2z
			 M472.2,302.9c15.2,0,23.8-9.9,23.8-23.8c0-13.6-8.8-23.6-23.8-23.6h-31.9v47.4H472.2z"/>
		<path class="st0" d="M600.4,207.9c34,0,52.2,24.7,52.2,55.9c0,3.5-0.7,11.3-0.7,11.3h-81.3c1.8,20.6,17.8,31.2,35.3,31.2
			c18.9,0,34-12.9,34-12.9l11.3,21c0,0-18,16.9-47.4,16.9c-39,0-63.3-28.2-63.3-61.7C540.5,233.4,565.2,207.9,600.4,207.9z
			 M623,255.1c-0.5-15.9-10.4-24.5-23.3-24.5c-15,0-25.4,9.2-28.2,24.5H623z"/>
		<path class="st0" d="M674.7,235.9h-15.2v-23.3h15.9v-34H704v34h26.8v23.3H704v45.7c0,19.4,15.2,22.2,23.3,22.2
			c3.2,0,5.3-0.5,5.3-0.5V329c0,0-3.5,0.7-9,0.7c-16.4,0-49-4.9-49-44.4V235.9z"/>
		<path class="st0" d="M811.3,254.6h3.9V253c0-15.5-9.7-20.8-22.6-20.8c-16.9,0-32.3,11.3-32.3,11.3l-11.1-21
			c0,0,18.2-14.6,46.2-14.6c31,0,49,17.1,49,46.9v73.7h-27v-9.7c0-4.6,0.5-8.3,0.5-8.3h-0.5c0.2,0-9,20.8-35.8,20.8
			c-21,0-40-13.2-40-36.7C741.5,257.1,792.1,254.6,811.3,254.6z M788.9,308.4c15.5,0,26.6-16.6,26.6-31v-2.8h-5.1
			c-15,0-39.3,2.1-39.3,18.5C771.1,301,776.9,308.4,788.9,308.4z"/>
		<path class="st0" d="M872.2,293.4c0,0,12.9,12.9,32.1,12.9c8.3,0,15.5-3.7,15.5-10.6c0-17.6-57.3-15.2-57.3-53.1
			c0-21.9,19.6-34.7,45-34.7c26.6,0,39.5,13.4,39.5,13.4l-10.9,21.7c0,0-10.9-10.2-28.9-10.2c-7.6,0-15,3.2-15,10.6
			c0,16.6,57.3,14.6,57.3,52.4c0,19.6-17.1,35.3-45,35.3c-29.3,0-45.7-17.3-45.7-17.3L872.2,293.4z"/>
		<path class="st0" d="M967.7,164.5h29.1v26.1h-29.1V164.5z M967.7,210.7H997v117.8h-29.3V210.7z"/>
	</g>
	<g>
		<path class="st0" d="M1093.4,166.1h56.1c29.1,0,50.1,18.9,50.1,49c0,30.3-21,49.7-50.1,49.7h-40.2v63.8h-15.9V166.1z
			 M1147.4,250.4c21.7,0,35.8-13.2,35.8-35.3c0-21.9-14.1-34.7-35.6-34.7h-38.3v70H1147.4z"/>
		<path class="st0" d="M1217,212.3h15.5v20.6c0,5.1-0.5,9.2-0.5,9.2h0.5c5.5-17.6,18.5-31,36.7-31c3.2,0,6.2,0.7,6.2,0.7v15.5
			c0,0-2.8-0.5-5.8-0.5c-16.4,0-28.6,12.9-33.7,30c-2.3,7.4-3.2,15.2-3.2,22.6v49H1217V212.3z"/>
		<path class="st0" d="M1336.6,209.6c32.1,0,48.5,24.7,48.5,53.6c0,2.8-0.5,8.1-0.5,8.1h-89.2c0.7,29.8,21,46,45,46
			c21.3,0,35.3-14.1,35.3-14.1l7.2,12c0,0-16.9,16.2-43,16.2c-34.7,0-60.8-24.9-60.8-60.8C1279.4,232.4,1305.2,209.6,1336.6,209.6z
			 M1369.2,258.3c-0.9-24.3-15.7-35.6-33-35.6c-19.4,0-36.3,12.2-40,35.6H1369.2z"/>
		<path class="st0" d="M1407.3,212.3h15.5v17.3c0,5.1-0.5,9.2-0.5,9.2h0.5c5.5-15.7,24-29.3,42-29.3c21.5,0,32.6,9.9,36,29.1h0.5
			c6.2-15.7,23.1-29.1,42.7-29.1c28.2,0,38.6,16.4,38.6,45v73.9H1567v-70c0-18.9-3.9-34.7-25.2-34.7c-17.8,0-32.3,15.7-36.7,32.8
			c-1.6,5.1-2.1,10.6-2.1,16.9v55h-15.7v-70c0-17.6-2.5-34.7-24.5-34.7c-18.9,0-33.3,16.4-38.1,34.2c-1.2,4.9-1.6,10.2-1.6,15.5v55
			h-15.7V212.3z"/>
		<path class="st0" d="M1610.1,166.1h16.4v19.6h-16.4V166.1z M1610.6,212.3h15.7v116.2h-15.7V212.3z"/>
		<path class="st0" d="M1653.5,212.3h15.7v69.8c0,18.3,2.8,34.4,25.2,34.4c26.6,0,43-23.3,43-48.5v-55.7h15.7v116.2h-15.2v-17.3
			c0-5.1,0.5-9.2,0.5-9.2h-0.5c-4.6,11.3-19.9,29.3-45.5,29.3c-27.3,0-38.8-14.8-38.8-45V212.3z"/>
		<path class="st0" d="M1781.7,212.3h15.5v17.3c0,5.1-0.5,9.2-0.5,9.2h0.5c5.5-15.7,24-29.3,42-29.3c21.5,0,32.6,9.9,36,29.1h0.5
			c6.2-15.7,23.1-29.1,42.7-29.1c28.2,0,38.6,16.4,38.6,45v73.9h-15.7v-70c0-18.9-3.9-34.7-25.2-34.7c-17.8,0-32.3,15.7-36.7,32.8
			c-1.6,5.1-2.1,10.6-2.1,16.9v55h-15.7v-70c0-17.6-2.5-34.7-24.5-34.7c-18.9,0-33.3,16.4-38.1,34.2c-1.2,4.9-1.6,10.2-1.6,15.5v55
			h-15.7V212.3z"/>
		<path class="st0" d="M1989.6,166.1h15.9v73.9h94.2v-73.9h15.9v162.4h-15.9v-74.2h-94.2v74.2h-15.9V166.1z"/>
		<path class="st0" d="M2203,209.6c34,0,61.4,25.9,61.4,60.3c0,35.1-27.5,61.4-61.4,61.4s-61.4-26.3-61.4-61.4
			C2141.6,235.4,2169.1,209.6,2203,209.6z M2203,317.2c24.9,0,45.3-20.3,45.3-47.4c0-26.3-20.3-46-45.3-46s-45.3,19.6-45.3,46
			C2157.7,296.9,2178.1,317.2,2203,317.2z"/>
		<path class="st0" d="M2286.7,226.9h-15.2v-13.2h15.5v-33.5h15.5v33.5h29.1v13.2h-29.1v57.8c0,27.3,17.3,30.7,26.1,30.7
			c3.2,0,5.3-0.5,5.3-0.5V329c0,0-2.5,0.5-6.7,0.5c-13.4,0-40.4-4.4-40.4-43.2V226.9z"/>
		<path class="st0" d="M2394.7,209.6c32.1,0,48.5,24.7,48.5,53.6c0,2.8-0.5,8.1-0.5,8.1h-89.2c0.7,29.8,21,46,45,46
			c21.3,0,35.3-14.1,35.3-14.1l7.2,12c0,0-16.9,16.2-43,16.2c-34.7,0-60.8-24.9-60.8-60.8C2337.4,232.4,2363.3,209.6,2394.7,209.6z
			 M2427.2,258.3c-0.9-24.3-15.7-35.6-33-35.6c-19.4,0-36.3,12.2-40,35.6H2427.2z"/>
		<path class="st0" d="M2464.5,166.1h15.7v131.4c0,15.2,6.9,17.6,12.9,17.6c2.1,0,3.9-0.2,3.9-0.2V329c0,0-2.8,0.5-5.8,0.5
			c-9.7,0-26.8-3-26.8-28.4V166.1z"/>
	</g>
</g>
</svg>
