<svg xmlns="http://www.w3.org/2000/svg" viewBox="0 0 2114.6 888"><path d="M597.9 510.7c0-24.2-9.8-46-25.6-61.9 15.8-15.8 25.6-37.7 25.6-61.9 0-48.3-39.2-87.5-87.5-87.5H299.1v211.3c0 48.3 39.2 87.5 87.5 87.5 24.2 0 46 9.8 61.9 25.6 15.8-15.8 37.7-25.6 61.9-25.6 48.3 0 87.5-39.1 87.5-87.5zm149.4-211.3h106.9c53.9 0 92.2 27.8 92.2 77 0 27.8-13.5 51.8-36.2 64v.8c32.8 9.7 48.4 40 48.4 70.3 0 59.8-48 86.7-103.1 86.7H747.3V299.4zm106.9 122.1c23.6 0 37-16.8 37-38.3 0-21.5-12.6-37-37.9-37h-51.8v75.3h52.7zm5.5 130c27.8 0 43.3-18.1 43.3-43.3 0-24.8-16-42.9-43.3-42.9h-58.1v86.3h58.1zm233.4-172.9c61.9 0 95.1 45 95.1 101.8 0 6.3-1.3 20.6-1.3 20.6h-148.1c3.4 37.5 32.4 56.8 64.4 56.8 34.5 0 61.9-23.6 61.9-23.6l20.6 38.3s-32.8 30.7-86.3 30.7c-71.1 0-115.3-51.3-115.3-112.4 0-66 45.1-112.2 109-112.2zm41.3 85.8c-.8-29-18.9-44.6-42.5-44.6-27.4 0-46.3 16.8-51.3 44.6h93.8zm94.1-34.9h-27.8V387h29v-61.9h52.2V387h48.8v42.5H1282v83.3c0 35.3 27.8 40.4 42.5 40.4 5.9 0 9.7-.8 9.7-.8v46.7s-6.3 1.3-16.4 1.3c-29.9 0-89.2-8.8-89.2-80.8v-90.1zm248.9 34.1h7.2v-2.9c0-28.2-17.7-37.9-41.2-37.9-30.7 0-58.9 20.6-58.9 20.6l-20.2-38.3s33.2-26.5 84.2-26.5c56.4 0 89.2 31.1 89.2 85.4v134.2h-49.2v-17.7c0-8.4.8-15.1.8-15.1h-.8c.4 0-16.4 37.9-65.2 37.9-38.3 0-72.8-24-72.8-66.9-.2-68.2 92-72.8 126.9-72.8zm-40.8 98c28.2 0 48.4-30.3 48.4-56.4v-5.1h-9.3c-27.4 0-71.5 3.8-71.5 33.7 0 14.4 10.5 27.8 32.4 27.8zm151.8-27.3s23.6 23.6 58.5 23.6c15.1 0 28.2-6.7 28.2-19.4 0-32-104.4-27.8-104.4-96.8 0-40 35.8-63.1 82.1-63.1 48.4 0 72 24.4 72 24.4l-19.8 39.6s-19.8-18.5-52.6-18.5c-13.9 0-27.4 5.9-27.4 19.4 0 30.3 104.4 26.5 104.4 95.5 0 35.8-31.1 64.4-82.1 64.4-53.4 0-83.3-31.6-83.3-31.6l24.4-37.5zm174-234.9h53V347h-53v-47.6zm0 84.2h53.4v214.6h-53.4V383.6z"/></svg>