<svg xmlns="http://www.w3.org/2000/svg" viewBox="0 0 1961.9 725" fill="#14286e"><path class="st0" d="M328.6 280.5c0-13.3-5.4-25.3-14.1-34 8.7-8.7 14.1-20.7 14.1-34 0-26.5-21.5-48-48-48h-116v116c0 26.5 21.5 48 48 48 13.3 0 25.3 5.4 34 14.1 8.7-8.7 20.7-14.1 34-14.1 26.4.1 48-21.5 48-48zm82-116h58.7c29.6 0 50.6 15.2 50.6 42.3 0 15.2-7.4 28.4-19.9 35.1v.5c18 5.3 26.6 21.9 26.6 38.6 0 32.8-26.3 47.6-56.6 47.6h-59.4V164.5zm58.6 67c12.9 0 20.3-9.2 20.3-21s-6.9-20.3-20.8-20.3h-28.4v41.3h28.9zm3 71.4c15.2 0 23.8-9.9 23.8-23.8 0-13.6-8.8-23.6-23.8-23.6h-31.9v47.4h31.9zM600.4 208c34 0 52.2 24.7 52.2 55.9 0 3.5-.7 11.3-.7 11.3h-81.3c1.8 20.6 17.8 31.2 35.3 31.2 18.9 0 34-12.9 34-12.9l11.3 21s-18 16.9-47.4 16.9c-39 0-63.3-28.2-63.3-61.7.1-36.3 24.8-61.7 59.9-61.7zm22.6 47.1c-.5-15.9-10.4-24.5-23.3-24.5-15 0-25.4 9.2-28.2 24.5H623zm51.7-19.2h-15.2v-23.3h15.9v-34H704v34h26.8v23.3H704v45.7c0 19.4 15.2 22.2 23.3 22.2 3.2 0 5.3-.5 5.3-.5V329s-3.5.7-9 .7c-16.4 0-49-4.9-49-44.4v-49.4zm136.6 18.7h3.9V253c0-15.5-9.7-20.8-22.6-20.8-16.9 0-32.3 11.3-32.3 11.3l-11.1-21s18.2-14.6 46.2-14.6c31 0 49 17.1 49 46.9v73.7h-27v-9.7c0-4.6.5-8.3.5-8.3h-.5c.2 0-9 20.8-35.8 20.8-21 0-40-13.2-40-36.7 0-37.4 50.5-40 69.7-40zm-22.4 53.9c15.5 0 26.6-16.6 26.6-31v-2.8h-5.1c-15 0-39.3 2.1-39.3 18.5 0 7.9 5.8 15.3 17.8 15.3zm83.4-15.1s12.9 12.9 32.1 12.9c8.3 0 15.5-3.7 15.5-10.6 0-17.6-57.3-15.2-57.3-53.1 0-21.9 19.6-34.7 45-34.7 26.6 0 39.5 13.4 39.5 13.4L936.2 243s-10.9-10.2-28.9-10.2c-7.6 0-15 3.2-15 10.6 0 16.6 57.3 14.6 57.3 52.4 0 19.6-17.1 35.3-45 35.3-29.3 0-45.7-17.3-45.7-17.3l13.4-20.4zm95.4-128.9h29.1v26.1h-29.1v-26.1zm0 46.2H997v117.8h-29.3V210.7zM410.6 398.1h56.1c29.1 0 50.1 18.9 50.1 49 0 30.3-21 49.7-50.1 49.7h-40.2v63.8h-15.9V398.1zm54 84.3c21.7 0 35.8-13.2 35.8-35.3 0-21.9-14.1-34.7-35.6-34.7h-38.3v70h38.1zm69.6-38.1h15.5v20.6c0 5.1-.5 9.2-.5 9.2h.5c5.5-17.6 18.5-31 36.7-31 3.2 0 6.2.7 6.2.7v15.5s-2.8-.5-5.8-.5c-16.4 0-28.6 12.9-33.7 30-2.3 7.4-3.2 15.2-3.2 22.6v49h-15.7V444.3zm119.6-2.8c32.1 0 48.5 24.7 48.5 53.6 0 2.8-.5 8.1-.5 8.1h-89.2c.7 29.8 21 46 45 46 21.3 0 35.3-14.1 35.3-14.1l7.2 12s-16.9 16.2-43 16.2c-34.7 0-60.8-24.9-60.8-60.8.2-38.1 26.1-61 57.5-61zm32.6 48.8c-.9-24.3-15.7-35.6-33-35.6-19.4 0-36.3 12.2-40 35.6h73zm38.1-46H740v17.3c0 5.1-.5 9.2-.5 9.2h.5c5.5-15.7 24-29.3 42-29.3 21.5 0 32.6 9.9 36 29.1h.5c6.2-15.7 23.1-29.1 42.7-29.1 28.2 0 38.6 16.4 38.6 45v73.9h-15.7v-70c0-18.9-3.9-34.7-25.2-34.7-17.8 0-32.3 15.7-36.7 32.8-1.6 5.1-2.1 10.6-2.1 16.9v55h-15.7v-70c0-17.6-2.5-34.7-24.5-34.7-18.9 0-33.3 16.4-38.1 34.2-1.2 4.9-1.6 10.2-1.6 15.5v55h-15.7V444.3zm202.8-46.2h16.4v19.6h-16.4v-19.6zm.5 46.2h15.7v116.2h-15.7V444.3zm42.9 0h15.7v69.8c0 18.3 2.8 34.4 25.2 34.4 26.6 0 43-23.3 43-48.5v-55.7h15.7v116.2H1055v-17.3c0-5.1.5-9.2.5-9.2h-.5c-4.6 11.3-19.9 29.3-45.5 29.3-27.3 0-38.8-14.8-38.8-45v-74zm128.2 0h15.5v17.3c0 5.1-.5 9.2-.5 9.2h.5c5.5-15.7 24-29.3 42-29.3 21.5 0 32.6 9.9 36 29.1h.5c6.2-15.7 23.1-29.1 42.7-29.1 28.2 0 38.6 16.4 38.6 45v73.9h-15.7v-70c0-18.9-3.9-34.7-25.2-34.7-17.8 0-32.3 15.7-36.7 32.8-1.6 5.1-2.1 10.6-2.1 16.9v55h-15.7v-70c0-17.6-2.5-34.7-24.5-34.7-18.9 0-33.3 16.4-38.1 34.2-1.2 4.9-1.6 10.2-1.6 15.5v55h-15.7V444.3zm207.9-46.2h15.9V472h94.2v-73.9h15.9v162.4H1417v-74.2h-94.2v74.2h-15.9V398.1zm213.4 43.4c34 0 61.4 25.9 61.4 60.3 0 35.1-27.5 61.4-61.4 61.4s-61.4-26.3-61.4-61.4c0-34.4 27.4-60.3 61.4-60.3zm0 107.7c24.9 0 45.3-20.3 45.3-47.4 0-26.3-20.3-46-45.3-46s-45.3 19.6-45.3 46c0 27 20.4 47.4 45.3 47.4zm83.7-90.4h-15.2v-13.2h15.5v-33.5h15.5v33.5h29.1v13.2h-29.1v57.8c0 27.3 17.3 30.7 26.1 30.7 3.2 0 5.3-.5 5.3-.5V561s-2.5.5-6.7.5c-13.4 0-40.4-4.4-40.4-43.2v-59.5zm108-17.3c32.1 0 48.5 24.7 48.5 53.6 0 2.8-.5 8.1-.5 8.1h-89.2c.7 29.8 21 46 45 46 21.3 0 35.3-14.1 35.3-14.1l7.2 12s-16.9 16.2-43 16.2c-34.7 0-60.8-24.9-60.8-60.8.2-38.1 26-61 57.5-61zm32.5 48.8c-.9-24.3-15.7-35.6-33-35.6-19.4 0-36.3 12.2-40 35.6h73zm37.2-92.2h15.7v131.4c0 15.2 6.9 17.6 12.9 17.6 2.1 0 3.9-.2 3.9-.2V561s-2.8.5-5.8.5c-9.7 0-26.8-3-26.8-28.4v-135z"/></svg>