<?xml version="1.0" encoding="utf-8"?>
<svg version="1.1" id="Layer_1" xmlns="http://www.w3.org/2000/svg" xmlns:xlink="http://www.w3.org/1999/xlink" x="0px" y="0px"
	 viewBox="0 0 2114.6 888" style="enable-background:new 0 0 2114.6 888;" xml:space="preserve">
<g>
	<path d="M597.9,510.7c0-24.2-9.8-46-25.6-61.9c15.8-15.8,25.6-37.7,25.6-61.9c0-48.3-39.2-87.5-87.5-87.5H299.1v211.3
		c0,48.3,39.2,87.5,87.5,87.5c24.2,0,46,9.8,61.9,25.6c15.8-15.8,37.7-25.6,61.9-25.6C558.7,598.2,597.9,559.1,597.9,510.7z"/>
	<g>
		<path d="M747.3,299.4h106.9c53.9,0,92.2,27.8,92.2,77c0,27.8-13.5,51.8-36.2,64v0.8c32.8,9.7,48.4,40,48.4,70.3
			c0,59.8-48,86.7-103.1,86.7H747.3V299.4z M854.2,421.5c23.6,0,37-16.8,37-38.3c0-21.5-12.6-37-37.9-37h-51.8v75.3H854.2z
			 M859.7,551.5c27.8,0,43.3-18.1,43.3-43.3c0-24.8-16-42.9-43.3-42.9h-58.1v86.3H859.7z"/>
		<path d="M1093.1,378.6c61.9,0,95.1,45,95.1,101.8c0,6.3-1.3,20.6-1.3,20.6h-148.1c3.4,37.5,32.4,56.8,64.4,56.8
			c34.5,0,61.9-23.6,61.9-23.6l20.6,38.3c0,0-32.8,30.7-86.3,30.7c-71.1,0-115.3-51.3-115.3-112.4
			C984.1,424.8,1029.2,378.6,1093.1,378.6z M1134.4,464.4c-0.8-29-18.9-44.6-42.5-44.6c-27.4,0-46.3,16.8-51.3,44.6H1134.4z"/>
		<path d="M1228.5,429.5h-27.8V387h29v-61.9h52.2V387h48.8v42.5H1282v83.3c0,35.3,27.8,40.4,42.5,40.4c5.9,0,9.7-0.8,9.7-0.8v46.7
			c0,0-6.3,1.3-16.4,1.3c-29.9,0-89.2-8.8-89.2-80.8V429.5z"/>
		<path d="M1477.4,463.6h7.2v-2.9c0-28.2-17.7-37.9-41.2-37.9c-30.7,0-58.9,20.6-58.9,20.6l-20.2-38.3c0,0,33.2-26.5,84.2-26.5
			c56.4,0,89.2,31.1,89.2,85.4v134.2h-49.2v-17.7c0-8.4,0.8-15.1,0.8-15.1h-0.8c0.4,0-16.4,37.9-65.2,37.9
			c-38.3,0-72.8-24-72.8-66.9C1350.3,468.2,1442.5,463.6,1477.4,463.6z M1436.6,561.6c28.2,0,48.4-30.3,48.4-56.4v-5.1h-9.3
			c-27.4,0-71.5,3.8-71.5,33.7C1404.2,548.2,1414.7,561.6,1436.6,561.6z"/>
		<path d="M1588.4,534.3c0,0,23.6,23.6,58.5,23.6c15.1,0,28.2-6.7,28.2-19.4c0-32-104.4-27.8-104.4-96.8c0-40,35.8-63.1,82.1-63.1
			c48.4,0,72,24.4,72,24.4l-19.8,39.6c0,0-19.8-18.5-52.6-18.5c-13.9,0-27.4,5.9-27.4,19.4c0,30.3,104.4,26.5,104.4,95.5
			c0,35.8-31.1,64.4-82.1,64.4c-53.4,0-83.3-31.6-83.3-31.6L1588.4,534.3z"/>
		<path d="M1762.4,299.4h53V347h-53V299.4z M1762.4,383.6h53.4v214.6h-53.4V383.6z"/>
	</g>
</g>
</svg>
